<svg width="44" height="26" viewBox="0 0 44 26" fill="none" xmlns="http://www.w3.org/2000/svg" xmlns:xlink="http://www.w3.org/1999/xlink">
<g opacity="0.35" style="isolation:isolate">
<path d="M0.936,5.823C0.936,2.877 3.324,0.489 6.269,0.489L34.546,0.489C37.491,0.489 39.879,2.877 39.879,5.823L39.879,20.183C39.879,23.129 37.491,25.516 34.546,25.516L6.269,25.516C3.324,25.516 0.936,23.129 0.936,20.183L0.936,5.823Z" clip-rule="evenodd" fill-rule="evenodd" stroke="#000000" stroke-width="1" stroke-miterlimit="3.999327"/>
</g>
<g opacity="0.4" style="isolation:isolate">
<path d="M41.649,8.587L41.649,17.42C43.074,16.672 44,14.931 44,13.003C44,11.075 43.074,9.335 41.649,8.587Z" fill="#000000"/>
</g>
<path d="M4.476,7.106C4.476,5.891 5.461,4.906 6.676,4.906L34.139,4.906C35.354,4.906 36.339,5.891 36.339,7.106L36.339,18.9C36.339,20.115 35.354,21.1 34.139,21.1L6.676,21.1C5.461,21.1 4.476,20.115 4.476,18.9L4.476,7.106Z" fill="#000000"/>
</svg>
