<svg width="40" height="40" viewBox="0 0 40 40" fill="none" xmlns="http://www.w3.org/2000/svg" xmlns:xlink="http://www.w3.org/1999/xlink">
<path d="M8.777,16.274C10.331,11.564 14.757,8.182 20,8.182C22.818,8.182 25.363,9.182 27.363,10.818L33.182,5C29.636,1.909 25.091,0 20,0C12.117,0 5.329,4.497 2.066,11.083L8.777,16.274Z" fill="#EA4335"/>
<path d="M26.735,30.021C24.918,31.194 22.61,31.818 20,31.818C14.778,31.818 10.365,28.461 8.795,23.78L2.063,28.892C5.321,35.489 12.108,40 20,40C24.888,40 29.559,38.262 33.057,34.999L26.735,30.021Z" fill="#34A853"/>
<path d="M33.057,34.999C36.715,31.587 39.091,26.506 39.091,20C39.091,18.818 38.909,17.545 38.636,16.364L20,16.364L20,24.091L30.727,24.091C30.198,26.689 28.777,28.702 26.735,30.021L33.057,34.999Z" fill="#4A90E2"/>
<path d="M8.795,23.78C8.397,22.594 8.182,21.323 8.182,20C8.182,18.697 8.391,17.445 8.777,16.274L2.067,11.083C0.728,13.767 0,16.792 0,20C0,23.199 0.741,26.217 2.062,28.892L8.795,23.78Z" fill="#FBBC05"/>
</svg>
