<svg width="40" height="40" viewBox="0 0 40 40" fill="none" xmlns="http://www.w3.org/2000/svg" xmlns:xlink="http://www.w3.org/1999/xlink">
<path d="M20,0C31.046,0 40,8.955 40,20C40,31.046 31.046,40 20,40C8.954,40 0,31.046 0,20C0,8.955 8.954,0 20,0Z" fill="#3B5998"/>
<path d="M22.435,13.769L25.012,13.769L25.012,9.961L21.982,9.961L21.982,9.975C18.311,10.105 17.559,12.169 17.492,14.336L17.485,14.336L17.485,16.237L14.985,16.237L14.985,19.966L17.485,19.966L17.485,29.961L21.252,29.961L21.252,19.966L24.339,19.966L24.935,16.237L21.254,16.237L21.254,15.089C21.254,14.356 21.741,13.769 22.435,13.769Z" fill="#FFFFFF"/>
</svg>
