<svg width="32" height="24" viewBox="0 0 32 24" fill="none" xmlns="http://www.w3.org/2000/svg" xmlns:xlink="http://www.w3.org/1999/xlink">
<path d="M28.322,-0.775L26.552,-0.775C25.574,-0.775 24.782,0.214 24.782,1.433L24.782,20.572C24.782,21.792 25.574,22.78 26.552,22.78L28.322,22.78C29.3,22.78 30.092,21.792 30.092,20.572L30.092,1.433C30.092,0.214 29.3,-0.775 28.322,-0.775ZM18.291,4.378L20.062,4.378C21.039,4.378 21.832,5.367 21.832,6.586L21.832,20.572C21.832,21.792 21.039,22.78 20.062,22.78L18.291,22.78C17.314,22.78 16.521,21.792 16.521,20.572L16.521,6.586C16.521,5.367 17.314,4.378 18.291,4.378ZM11.801,9.531L10.031,9.531C9.053,9.531 8.261,10.519 8.261,11.739L8.261,20.572C8.261,21.792 9.053,22.78 10.031,22.78L11.801,22.78C12.779,22.78 13.571,21.792 13.571,20.572L13.571,11.739C13.571,10.519 12.779,9.531 11.801,9.531ZM3.54,13.947L1.77,13.947C0.793,13.947 0,14.936 0,16.155L0,20.572C0,21.791 0.793,22.78 1.77,22.78L3.54,22.78C4.518,22.78 5.31,21.791 5.31,20.572L5.31,16.155C5.31,14.936 4.518,13.947 3.54,13.947Z" clip-rule="evenodd" fill-rule="evenodd" fill="#000000"/>
</svg>
