<svg width="418" height="418" viewBox="0 0 418 418" fill="none" xmlns="http://www.w3.org/2000/svg" xmlns:xlink="http://www.w3.org/1999/xlink">
<path d="M343.771,316.433L113.248,353.244L83.527,171.177L314.049,134.366L343.771,316.433Z" fill="#7D91FA"/>
<path d="M295.966,191.852L113.8,191.852L113.8,203.378L295.966,203.378L295.966,191.852Z" transform="rotate(341.842 204.883 197.615)" fill="#FFFFFF"/>
<path d="M301.159,220.298L118.996,220.298L118.996,231.817L301.159,231.817L301.159,220.298Z" transform="rotate(341.853 210.078 226.058)" fill="#FFFFFF"/>
<path d="M305.92,250.544L123.751,250.544L123.751,262.07L305.92,262.07L305.92,250.544Z" transform="rotate(341.853 214.836 256.307)" fill="#FFFFFF"/>
<path d="M229.691,289.792L130.522,305.637L128.691,294.257L227.864,278.412L229.691,289.792Z" fill="#FFFFFF"/>
<path d="M199.42,178.573L194.074,145.273L205.373,145.273L199.875,178.573L199.42,178.573Z" fill="#7D8880"/>
<path d="M174.831,64.125L176.75,67.434L188.935,78.555L182.859,123.09L185.193,143.429L193.898,148.368L210.422,148.773L222.545,141.722L214.616,128.91L210.11,80.388L210.342,73.755L221.182,67.145L222.505,63.767L174.831,64.125Z" fill="#F06668"/>
<path d="M219.72,145.985C215.67,148.667 210.707,150.407 205.287,150.997L203.464,151.153C203.255,151.17 203.053,151.199 202.844,151.199L201.17,151.249C197.845,151.232 194.633,150.795 191.673,149.926C180.578,146.708 172.582,138.099 172.434,127.886C172.357,122.158 175.364,120.968 181.002,117.276L187.585,79.125C182.245,77.315 178.016,71.199 175.85,66.549C183.163,72.645 191.759,74.097 197.901,74.156C198.11,75.698 198.683,80.08 198.706,80.726C202.627,80.739 205.875,80.163 208.134,79.542L208.14,79.519L209.217,72.78C214.02,71.547 218.23,69.562 221.174,67.149C219.404,71.136 216.497,75.96 212.785,77.749C212.785,77.749 217.514,104.841 219.398,116.191C225.494,119.689 230.546,121.167 230.636,127.083C230.755,134.695 226.463,141.524 219.72,145.985ZM208.251,80.739C205.927,81.359 202.661,81.929 198.724,81.913L198.461,134.175C200.159,134.327 201.869,134.387 203.543,134.251C207.1,133.953 210.305,132.922 212.933,131.328L208.251,80.739ZM220.307,142.352L213.306,132.484C210.557,134.092 207.276,135.129 203.643,135.434C201.886,135.583 200.093,135.504 198.303,135.344L193.227,146.472L193.191,146.556C195.932,147.092 198.823,147.364 201.823,147.325C208.854,147.222 215.285,145.429 220.28,142.521L220.307,142.352ZM201.406,72.873C195.257,73.324 183.652,72.771 174.831,64.125C174.254,63.018 173.896,61.864 173.883,60.658C173.866,59.352 174.218,58.085 174.854,56.876C177.827,51.349 187.258,47.229 198.495,47.063C209.733,46.915 219.272,50.782 222.389,56.216C223.078,57.405 223.456,58.665 223.479,59.975C223.496,61.288 223.151,62.561 222.501,63.77C222.431,63.972 222.336,64.217 222.252,64.43C218.56,68.793 210.154,72.236 201.406,72.873Z" fill="#E84849"/>
</svg>
