<svg width="98" height="98" viewBox="0 0 98 98" fill="none" xmlns="http://www.w3.org/2000/svg" xmlns:xlink="http://www.w3.org/1999/xlink">
<path d="M80.597,74.188L26.551,82.818L19.583,40.132L73.629,31.502L80.597,74.188Z" fill="#7D91FA"/>
<path d="M69.389,44.98L26.68,44.98L26.68,47.682L69.389,47.682L69.389,44.98Z" transform="rotate(341.842 48.035 46.331)" fill="#FFFFFF"/>
<path d="M70.606,51.649L27.898,51.649L27.898,54.35L70.606,54.35L70.606,51.649Z" transform="rotate(341.853 49.252 52.999)" fill="#FFFFFF"/>
<path d="M71.723,58.74L29.013,58.74L29.013,61.442L71.723,61.442L71.723,58.74Z" transform="rotate(341.853 50.368 60.091)" fill="#FFFFFF"/>
<path d="M53.851,67.942L30.601,71.656L30.172,68.989L53.423,65.274L53.851,67.942Z" fill="#FFFFFF"/>
<path d="M46.754,41.866L45.5,34.059L48.15,34.059L46.861,41.866L46.754,41.866Z" fill="#7D8880"/>
<path d="M40.989,15.034L41.439,15.81L44.296,18.417L42.871,28.858L43.419,33.627L45.46,34.785L49.334,34.88L52.176,33.227L50.317,30.223L49.26,18.847L49.315,17.292L51.856,15.742L52.166,14.95L40.989,15.034Z" fill="#F06668"/>
<path d="M51.513,34.226C50.564,34.855 49.4,35.263 48.13,35.401L47.702,35.438C47.653,35.442 47.606,35.449 47.557,35.449L47.164,35.46C46.385,35.456 45.632,35.354 44.938,35.15C42.336,34.396 40.462,32.377 40.427,29.983C40.409,28.64 41.114,28.361 42.436,27.495L43.979,18.551C42.727,18.127 41.736,16.693 41.228,15.602C42.943,17.032 44.958,17.372 46.398,17.386C46.447,17.747 46.581,18.775 46.587,18.926C47.506,18.929 48.268,18.794 48.797,18.649L48.798,18.643L49.051,17.063C50.177,16.774 51.164,16.309 51.854,15.743C51.439,16.678 50.758,17.809 49.887,18.228C49.887,18.228 50.996,24.58 51.438,27.241C52.867,28.061 54.052,28.407 54.073,29.795C54.101,31.579 53.094,33.18 51.513,34.226ZM48.824,18.929C48.28,19.075 47.514,19.208 46.591,19.204L46.529,31.457C46.927,31.493 47.328,31.507 47.721,31.475C48.555,31.405 49.306,31.164 49.922,30.79L48.824,18.929ZM51.651,33.374L50.009,31.061C49.365,31.438 48.596,31.681 47.744,31.752C47.332,31.787 46.912,31.769 46.492,31.731L45.302,34.34L45.294,34.36C45.936,34.486 46.614,34.549 47.318,34.54C48.966,34.516 50.473,34.096 51.645,33.414L51.651,33.374ZM47.22,17.085C45.778,17.191 43.057,17.061 40.989,15.034C40.854,14.774 40.77,14.504 40.767,14.221C40.763,13.915 40.845,13.618 40.995,13.334C41.692,12.039 43.903,11.073 46.537,11.034C49.172,10.999 51.408,11.906 52.139,13.18C52.301,13.459 52.389,13.754 52.395,14.061C52.399,14.369 52.318,14.667 52.165,14.951C52.149,14.998 52.127,15.056 52.107,15.106C51.241,16.128 49.27,16.936 47.22,17.085Z" fill="#E84849"/>
</svg>
