<svg width="32" height="32" viewBox="0 0 32 32" fill="none" xmlns="http://www.w3.org/2000/svg" xmlns:xlink="http://www.w3.org/1999/xlink">
<path d="M21.335,7.619C21.335,7.225 21.196,6.844 20.946,6.563L15.507,0.438C15.257,0.156 14.918,0 14.562,0L14.223,0L14.223,8L21.335,8L21.335,7.619ZM31.725,19.25L26.408,13.225C25.847,12.594 24.885,13.038 24.885,13.931L24.885,18L21.33,18L21.33,22L24.885,22L24.885,26.075C24.885,26.969 25.847,27.413 26.408,26.781L31.725,20.75C32.092,20.337 32.092,19.663 31.725,19.25ZM10.668,21L10.668,19C10.668,18.45 11.068,18 11.557,18L21.335,18L21.335,10L13.779,10C13.046,10 12.446,9.325 12.446,8.5L12.446,0L1.333,0C0.594,0 0,0.669 0,1.5L0,30.5C0,31.331 0.594,32 1.333,32L20.002,32C20.741,32 21.335,31.331 21.335,30.5L21.335,22L11.557,22C11.068,22 10.668,21.55 10.668,21Z" fill="#000000"/>
</svg>
