<svg width="28" height="28" viewBox="0 0 28 28" fill="none" xmlns="http://www.w3.org/2000/svg" xmlns:xlink="http://www.w3.org/1999/xlink">
<path d="M25.997,22.79L20.865,17.657C20.633,17.426 20.319,17.297 19.989,17.297L19.15,17.297C20.571,15.48 21.415,13.194 21.415,10.708C21.415,4.793 16.623,0 10.708,0C4.793,0 0,4.793 0,10.708C0,16.623 4.793,21.415 10.708,21.415C13.194,21.415 15.48,20.571 17.297,19.15L17.297,19.989C17.297,20.319 17.426,20.633 17.657,20.865L22.79,25.997C23.274,26.481 24.056,26.481 24.535,25.997L25.992,24.54C26.476,24.056 26.476,23.274 25.997,22.79ZM10.708,17.297C7.068,17.297 4.118,14.352 4.118,10.708C4.118,7.068 7.063,4.118 10.708,4.118C14.347,4.118 17.297,7.063 17.297,10.708C17.297,14.347 14.352,17.297 10.708,17.297Z" fill="#000000"/>
</svg>
