<svg width="28" height="32" viewBox="0 0 28 32" fill="none" xmlns="http://www.w3.org/2000/svg" xmlns:xlink="http://www.w3.org/1999/xlink">
<path d="M28,22.5L28,1.5C28,0.669 27.331,0 26.5,0L6,0C2.688,0 0,2.688 0,6L0,26C0,29.312 2.688,32 6,32L26.5,32C27.331,32 28,31.331 28,30.5L28,29.5C28,29.031 27.781,28.606 27.444,28.331C27.181,27.369 27.181,24.625 27.444,23.663C27.781,23.394 28,22.969 28,22.5ZM8,8.375C8,8.169 8.169,8 8.375,8L21.625,8C21.831,8 22,8.169 22,8.375L22,9.625C22,9.831 21.831,10 21.625,10L8.375,10C8.169,10 8,9.831 8,9.625L8,8.375ZM8,12.375C8,12.169 8.169,12 8.375,12L21.625,12C21.831,12 22,12.169 22,12.375L22,13.625C22,13.831 21.831,14 21.625,14L8.375,14C8.169,14 8,13.831 8,13.625L8,12.375ZM23.837,28L6,28C4.894,28 4,27.106 4,26C4,24.9 4.9,24 6,24L23.837,24C23.719,25.069 23.719,26.931 23.837,28Z" fill="#FBBC05"/>
</svg>
