<svg width="28" height="32" viewBox="0 0 28 32" fill="none" xmlns="http://www.w3.org/2000/svg" xmlns:xlink="http://www.w3.org/1999/xlink">
<path d="M2,29C2,29.796 2.316,30.559 2.879,31.121C3.441,31.684 4.204,32 5,32L23,32C23.796,32 24.559,31.684 25.121,31.121C25.684,30.559 26,29.796 26,29L26,8L2,8L2,29ZM19,13C19,12.735 19.105,12.48 19.293,12.293C19.48,12.105 19.735,12 20,12C20.265,12 20.52,12.105 20.707,12.293C20.895,12.48 21,12.735 21,13L21,27C21,27.265 20.895,27.52 20.707,27.707C20.52,27.895 20.265,28 20,28C19.735,28 19.48,27.895 19.293,27.707C19.105,27.52 19,27.265 19,27L19,13ZM13,13C13,12.735 13.105,12.48 13.293,12.293C13.48,12.105 13.735,12 14,12C14.265,12 14.52,12.105 14.707,12.293C14.895,12.48 15,12.735 15,13L15,27C15,27.265 14.895,27.52 14.707,27.707C14.52,27.895 14.265,28 14,28C13.735,28 13.48,27.895 13.293,27.707C13.105,27.52 13,27.265 13,27L13,13ZM7,13C7,12.735 7.105,12.48 7.293,12.293C7.48,12.105 7.735,12 8,12C8.265,12 8.52,12.105 8.707,12.293C8.895,12.48 9,12.735 9,13L9,27C9,27.265 8.895,27.52 8.707,27.707C8.52,27.895 8.265,28 8,28C7.735,28 7.48,27.895 7.293,27.707C7.105,27.52 7,27.265 7,27L7,13ZM27,2L19.5,2L18.912,0.831C18.788,0.581 18.596,0.371 18.359,0.224C18.122,0.078 17.848,0 17.569,0L10.425,0C10.146,-0.001 9.873,0.076 9.637,0.223C9.4,0.37 9.21,0.581 9.088,0.831L8.5,2L1,2C0.735,2 0.48,2.105 0.293,2.293C0.105,2.48 0,2.735 0,3L0,5C0,5.265 0.105,5.52 0.293,5.707C0.48,5.895 0.735,6 1,6L27,6C27.265,6 27.52,5.895 27.707,5.707C27.895,5.52 28,5.265 28,5L28,3C28,2.735 27.895,2.48 27.707,2.293C27.52,2.105 27.265,2 27,2L27,2Z" fill="#000000"/>
</svg>
