<svg width="10" height="28" viewBox="0 0 10 28" fill="none" xmlns="http://www.w3.org/2000/svg" xmlns:xlink="http://www.w3.org/1999/xlink">
<path d="M4.182,9.354C6.297,9.354 8.008,11.065 8.008,13.18C8.008,15.295 6.297,17.006 4.182,17.006C2.067,17.006 0.355,15.295 0.355,13.18C0.355,11.065 2.067,9.354 4.182,9.354ZM0.355,3.826C0.355,5.942 2.067,7.653 4.182,7.653C6.297,7.653 8.008,5.942 8.008,3.826C8.008,1.711 6.297,0 4.182,0C2.067,0 0.355,1.711 0.355,3.826ZM0.355,22.534C0.355,24.649 2.067,26.36 4.182,26.36C6.297,26.36 8.008,24.649 8.008,22.534C8.008,20.418 6.297,18.707 4.182,18.707C2.067,18.707 0.355,20.418 0.355,22.534Z" fill="#000000"/>
</svg>
