<svg width="32" height="32" viewBox="0 0 32 32" fill="none" xmlns="http://www.w3.org/2000/svg" xmlns:xlink="http://www.w3.org/1999/xlink">
<path d="M1.143,5.878L30.857,5.878C31.488,5.878 32,5.293 32,4.571L32,1.306C32,0.585 31.488,0 30.857,0L1.143,0C0.512,0 0,0.585 0,1.306L0,4.571C0,5.293 0.512,5.878 1.143,5.878ZM1.143,18.939L30.857,18.939C31.488,18.939 32,18.354 32,17.633L32,14.367C32,13.646 31.488,13.061 30.857,13.061L1.143,13.061C0.512,13.061 0,13.646 0,14.367L0,17.633C0,18.354 0.512,18.939 1.143,18.939ZM1.143,32L30.857,32C31.488,32 32,31.415 32,30.694L32,27.429C32,26.707 31.488,26.122 30.857,26.122L1.143,26.122C0.512,26.122 0,26.707 0,27.429L0,30.694C0,31.415 0.512,32 1.143,32Z" fill="#000000"/>
</svg>
