<svg width="32" height="34" viewBox="0 0 32 34" fill="none" xmlns="http://www.w3.org/2000/svg" xmlns:xlink="http://www.w3.org/1999/xlink">
<path d="M31.565,27.671L25.333,21.439C25.052,21.158 24.671,21.002 24.271,21.002L23.252,21.002C24.977,18.795 26.002,16.02 26.002,13.001C26.002,5.819 20.183,0 13.001,0C5.819,0 0,5.819 0,13.001C0,20.183 5.819,26.002 13.001,26.002C16.02,26.002 18.795,24.977 21.002,23.252L21.002,24.271C21.002,24.671 21.158,25.052 21.439,25.333L27.671,31.565C28.258,32.152 29.208,32.152 29.79,31.565L31.559,29.796C32.146,29.208 32.146,28.258 31.565,27.671ZM13.001,21.002C8.582,21.002 5,17.426 5,13.001C5,8.582 8.576,5 13.001,5C17.42,5 21.002,8.576 21.002,13.001C21.002,17.42 17.426,21.002 13.001,21.002Z" fill="#000000"/>
</svg>
