<svg width="32" height="34" viewBox="0 0 32 34" fill="none" xmlns="http://www.w3.org/2000/svg" xmlns:xlink="http://www.w3.org/1999/xlink">
<path d="M31.591,20.73L28.72,19.073C29.01,17.509 29.01,15.905 28.72,14.341L31.591,12.684C31.921,12.495 32.07,12.104 31.962,11.74C31.214,9.341 29.94,7.171 28.275,5.365C28.019,5.088 27.602,5.021 27.278,5.21L24.407,6.867C23.201,5.83 21.812,5.028 20.31,4.502L20.31,1.193C20.31,0.816 20.047,0.485 19.676,0.404C17.203,-0.148 14.669,-0.121 12.317,0.404C11.946,0.485 11.683,0.816 11.683,1.193L11.683,4.509C10.187,5.041 8.799,5.843 7.586,6.874L4.721,5.216C4.391,5.028 3.98,5.088 3.724,5.371C2.059,7.171 0.786,9.341 0.037,11.747C-0.077,12.111 0.078,12.502 0.408,12.69L3.279,14.348C2.989,15.912 2.989,17.516 3.279,19.079L0.408,20.737C0.078,20.926 -0.07,21.317 0.037,21.681C0.786,24.08 2.059,26.25 3.724,28.056C3.98,28.332 4.398,28.4 4.721,28.211L7.592,26.553C8.799,27.591 10.187,28.393 11.69,28.919L11.69,32.235C11.69,32.612 11.953,32.942 12.323,33.023C14.797,33.576 17.331,33.549 19.683,33.023C20.053,32.942 20.316,32.612 20.316,32.235L20.316,28.919C21.812,28.386 23.201,27.584 24.414,26.553L27.285,28.211C27.615,28.4 28.026,28.339 28.282,28.056C29.947,26.257 31.221,24.087 31.969,21.681C32.07,21.31 31.921,20.919 31.591,20.73L31.591,20.73ZM15.996,22.099C13.024,22.099 10.605,19.679 10.605,16.707C10.605,13.735 13.024,11.315 15.996,11.315C18.968,11.315 21.388,13.735 21.388,16.707C21.388,19.679 18.968,22.099 15.996,22.099L15.996,22.099Z" fill="#000000"/>
</svg>
