<svg width="30" height="26" viewBox="0 0 30 26" fill="none" xmlns="http://www.w3.org/2000/svg" xmlns:xlink="http://www.w3.org/1999/xlink">
<path d="M14.509,5.513C18.431,5.513 22.204,7.393 25.047,10.765C25.261,11.025 25.603,11.022 25.814,10.757L27.86,8.181C27.967,8.047 28.026,7.865 28.025,7.676C28.024,7.487 27.963,7.306 27.855,7.174C20.394,-1.747 8.623,-1.747 1.161,7.174C1.053,7.306 0.992,7.487 0.991,7.676C0.99,7.865 1.049,8.047 1.156,8.181L3.203,10.757C3.414,11.022 3.756,11.025 3.97,10.765C6.813,7.393 10.586,5.513 14.509,5.513ZM14.509,13.895C16.664,13.894 18.742,14.894 20.34,16.698C20.556,16.954 20.896,16.949 21.107,16.686L23.151,14.109C23.258,13.974 23.318,13.791 23.317,13.6C23.315,13.41 23.252,13.228 23.142,13.096C18.278,7.451 10.744,7.451 5.879,13.096C5.77,13.228 5.707,13.41 5.705,13.601C5.704,13.791 5.764,13.975 5.872,14.109L7.915,16.686C8.126,16.949 8.466,16.954 8.682,16.698C10.279,14.895 12.355,13.896 14.509,13.895ZM18.603,19.534C18.606,19.725 18.546,19.909 18.437,20.043L14.901,24.494C14.798,24.625 14.656,24.698 14.509,24.698C14.361,24.698 14.22,24.625 14.116,24.494L10.58,20.043C10.471,19.909 10.411,19.725 10.414,19.534C10.417,19.343 10.484,19.162 10.597,19.034C12.855,16.651 16.162,16.651 18.42,19.034C18.534,19.162 18.6,19.343 18.603,19.534Z" clip-rule="evenodd" fill-rule="evenodd" fill="#000000"/>
</svg>
